<svg width="72" height="72" viewBox="0 0 72 72" fill="none" xmlns="http://www.w3.org/2000/svg">
<rect width="72" height="72" rx="10" fill="#7F56D9"/>
<path d="M44.6358 44.0781L36.4692 35.7449M36.4692 35.7449L28.3026 44.0781M36.4692 35.7449V54.4949M53.5989 49.0574C55.59 47.9496 57.1631 46.1966 58.0699 44.0754C58.9764 41.9539 59.1648 39.5849 58.6055 37.3421C58.0459 35.0994 56.7704 33.1105 54.9804 31.6896C53.1902 30.2686 50.9872 29.4964 48.7192 29.4949H46.1467C45.5288 27.0558 44.3768 24.7914 42.778 22.8719C41.1789 20.9525 39.174 19.4279 36.9146 18.4128C34.6549 17.3977 32.1992 16.9185 29.732 17.0113C27.2647 17.1041 24.8502 17.7663 22.67 18.9483C20.4897 20.1304 18.6004 21.8013 17.1441 23.8357C15.6878 25.87 14.7024 28.2147 14.262 30.6936C13.8216 33.1725 13.9376 35.721 14.6014 38.1474C15.2651 40.5741 16.4593 42.8154 18.0942 44.7031" stroke="white" stroke-width="1.67" stroke-linecap="round" stroke-linejoin="round"/>
</svg>
