<svg width="20" height="20" viewBox="0 0 20 20" fill="none" xmlns="http://www.w3.org/2000/svg">
<path d="M14 20H5.89995C4.24995 20 2.94995 18.65 2.94995 17.05V8C2.94995 7.7 3.14995 7.5 3.44995 7.5C3.74995 7.5 3.94995 7.7 3.94995 8V17.05C3.94995 18.15 4.84995 19 5.89995 19H14C15.1 19 15.95 18.1 15.95 17.05V8C15.95 7.7 16.15 7.5 16.45 7.5C16.75 7.5 16.95 7.7 16.95 8V17.05C16.95 18.65 15.6 20 14 20Z" fill="currentColor"/>
<path d="M16.65 2.45H12.85C12.6 1.05 11.4 0 9.94995 0C8.49995 0 7.29995 1.05 7.04995 2.45H3.24995C2.09995 2.45 1.19995 3.35 1.19995 4.5C1.19995 5.65 2.09995 6.5 3.24995 6.5H16.7C17.85 6.5 18.75 5.6 18.75 4.45C18.75 3.3 17.8 2.45 16.65 2.45ZM9.94995 1C10.85 1 11.6 1.6 11.8 2.45H8.04995C8.29995 1.6 9.04995 1 9.94995 1ZM16.65 5.5H3.24995C2.69995 5.5 2.19995 5.05 2.19995 4.45C2.19995 3.9 2.64995 3.4 3.24995 3.4H16.7C17.25 3.4 17.75 3.85 17.75 4.45C17.7 5.05 17.25 5.5 16.65 5.5Z" fill="currentColor"/>
<path d="M6.44995 17.5502C6.14995 17.5502 5.94995 17.3502 5.94995 17.0502V8.7002C5.94995 8.4002 6.14995 8.2002 6.44995 8.2002C6.74995 8.2002 6.94995 8.4002 6.94995 8.7002V17.0502C6.94995 17.3002 6.69995 17.5502 6.44995 17.5502Z" fill="currentColor"/>
<path d="M13.45 17.5502C13.15 17.5502 12.95 17.3502 12.95 17.0502V8.7002C12.95 8.4002 13.15 8.2002 13.45 8.2002C13.75 8.2002 13.95 8.4002 13.95 8.7002V17.0502C13.95 17.3002 13.7 17.5502 13.45 17.5502Z" fill="currentColor"/>
<path d="M9.94995 17.5502C9.64995 17.5502 9.44995 17.3502 9.44995 17.0502V8.7002C9.44995 8.4002 9.64995 8.2002 9.94995 8.2002C10.25 8.2002 10.45 8.4002 10.45 8.7002V17.0502C10.45 17.3002 10.2 17.5502 9.94995 17.5502Z" fill="currentColor"/>
</svg>
