<svg width="32" height="32" viewBox="0 0 32 32" fill="none" xmlns="http://www.w3.org/2000/svg">
<path d="M19 26C18.8684 26.0008 18.7379 25.9755 18.6161 25.9258C18.4943 25.876 18.3834 25.8027 18.29 25.71C18.1963 25.617 18.1219 25.5064 18.0711 25.3846C18.0203 25.2627 17.9942 25.132 17.9942 25C17.9942 24.868 18.0203 24.7373 18.0711 24.6154C18.1219 24.4936 18.1963 24.383 18.29 24.29L26.59 16L18.29 7.71C18.1017 7.5217 17.9959 7.2663 17.9959 7C17.9959 6.7337 18.1017 6.47831 18.29 6.29C18.4783 6.1017 18.7337 5.99591 19 5.99591C19.2663 5.99591 19.5217 6.1017 19.71 6.29L28.71 15.29C28.8037 15.383 28.8781 15.4936 28.9289 15.6154C28.9797 15.7373 29.0058 15.868 29.0058 16C29.0058 16.132 28.9797 16.2627 28.9289 16.3846C28.8781 16.5064 28.8037 16.617 28.71 16.71L19.71 25.71C19.6166 25.8027 19.5057 25.876 19.3839 25.9258C19.2621 25.9755 19.1316 26.0008 19 26Z" fill="currentColor"/>
<path d="M28 17H4C3.73478 17 3.48043 16.8946 3.29289 16.7071C3.10536 16.5196 3 16.2652 3 16C3 15.7348 3.10536 15.4804 3.29289 15.2929C3.48043 15.1054 3.73478 15 4 15H28C28.2652 15 28.5196 15.1054 28.7071 15.2929C28.8946 15.4804 29 15.7348 29 16C29 16.2652 28.8946 16.5196 28.7071 16.7071C28.5196 16.8946 28.2652 17 28 17Z" fill="currentColor"/>
</svg>
