<svg width="20" height="20" viewBox="0 0 20 20" fill="none" xmlns="http://www.w3.org/2000/svg">
<path d="M5.72415 13.35L4.27745 14.1853C3.82127 14.449 3.2897 14.519 2.78127 14.3823C2.27238 14.246 1.84729 13.9197 1.5838 13.4635L1.44012 13.2144C0.896452 12.2728 1.22013 11.0643 2.16177 10.5208L8.63883 6.78114C9.58063 6.23747 10.7887 6.56162 11.3325 7.50296L11.4762 7.75204C11.7397 8.20823 11.8095 8.73964 11.6733 9.24838C11.537 9.75712 11.2107 10.1824 10.7545 10.4459L10.1814 10.7767C9.90002 10.9391 9.80366 11.2988 9.9662 11.5802C10.1287 11.8618 10.4881 11.9584 10.7697 11.7954L11.3427 11.4647C12.8461 10.5967 13.3631 8.66733 12.495 7.16379L12.3512 6.91471C11.4834 5.41148 9.55427 4.89462 8.05059 5.76229L1.57353 9.50189C0.0701474 10.3699 -0.446871 12.2991 0.421249 13.8026L0.564931 14.0517C0.985433 14.78 1.66435 15.301 2.47671 15.5186C2.74801 15.5912 3.02313 15.6272 3.29658 15.6272C3.84208 15.6272 4.38053 15.4842 4.86567 15.2041L6.31236 14.369C6.59377 14.2065 6.69013 13.8468 6.52775 13.5654C6.36525 13.2844 6.006 13.1879 5.72415 13.35Z" fill="currentColor"/>
<path d="M19.5768 6.19767L19.4331 5.94859C19.0126 5.22034 18.3337 4.69934 17.5213 4.48167C16.7087 4.26414 15.8606 4.37551 15.1324 4.79617L13.6857 5.63134C13.4043 5.79388 13.3079 6.15355 13.4703 6.43496C13.6328 6.71637 13.9925 6.81286 14.2739 6.65034L15.7206 5.815C16.177 5.55182 16.7088 5.48198 17.2168 5.618C17.7257 5.75434 18.1508 6.08063 18.4143 6.53682L18.558 6.7859C19.1018 7.72754 18.7779 8.93589 17.8363 9.47956L11.3592 13.2192C10.4177 13.7627 9.20922 13.4387 8.66558 12.4974L8.52188 12.2483C8.25839 11.7921 8.18854 11.2607 8.32472 10.7519C8.46107 10.2432 8.78736 9.81795 9.24354 9.55446L9.81661 9.22359C10.098 9.0612 10.1944 8.70153 10.0318 8.42012C9.86961 8.13903 9.51023 8.04222 9.22838 8.20489L8.65531 8.53563C7.15193 9.4036 6.63493 11.333 7.50303 12.8365L7.64686 13.0856C8.22928 14.0945 9.28966 14.6592 10.3787 14.6592C10.9124 14.6592 11.453 14.5234 11.9475 14.238L18.4246 10.4984C19.1528 10.0781 19.6738 9.39899 19.8915 8.5868C20.1092 7.77443 19.9973 6.92591 19.5768 6.19767Z" fill="currentColor"/>
</svg>
