<svg width="20" height="20" viewBox="0 0 20 20" fill="none" xmlns="http://www.w3.org/2000/svg">
<path d="M9.66868 14.55C9.68977 14.5709 9.71279 14.5897 9.73743 14.6063L9.77493 14.6266C9.80309 14.6446 9.83434 14.6573 9.86712 14.6641L9.90618 14.675C9.96602 14.6868 10.0276 14.6868 10.0874 14.675L10.1281 14.6625L10.1749 14.6484C10.191 14.641 10.2067 14.6326 10.2218 14.6234L10.2546 14.6047C10.2805 14.5873 10.3046 14.5674 10.3265 14.5453L14.5312 10.3453C14.5836 10.3045 14.6268 10.253 14.6578 10.1942C14.6889 10.1355 14.707 10.0708 14.7112 10.0044C14.7153 9.93811 14.7053 9.87167 14.6817 9.80951C14.6582 9.74735 14.6218 9.69091 14.5748 9.64391C14.5278 9.59692 14.4713 9.56046 14.4092 9.53694C14.347 9.51343 14.2806 9.5034 14.2142 9.50752C14.1479 9.51164 14.0832 9.52982 14.0244 9.56085C13.9657 9.59188 13.9142 9.63505 13.8734 9.6875L10.4687 13.0875V0.46875C10.4687 0.34443 10.4193 0.225201 10.3314 0.137294C10.2435 0.049386 10.1243 0 9.99993 0C9.87561 0 9.75638 0.049386 9.66848 0.137294C9.58057 0.225201 9.53118 0.34443 9.53118 0.46875V13.0875L6.12649 9.6875C6.03631 9.61732 5.9236 9.58251 5.80955 9.58959C5.6955 9.59668 5.58797 9.64519 5.50717 9.72599C5.42637 9.80679 5.37786 9.91432 5.37078 10.0284C5.36369 10.1424 5.39851 10.2551 5.46868 10.3453L9.66868 14.55Z" fill="currentColor"/>
<path d="M19.5312 13.75C19.4069 13.75 19.2877 13.7994 19.1998 13.8873C19.1119 13.9752 19.0625 14.0944 19.0625 14.2188V17.6562C19.0625 18.0292 18.9143 18.3869 18.6506 18.6506C18.3869 18.9143 18.0292 19.0625 17.6562 19.0625H2.34375C1.97079 19.0625 1.6131 18.9143 1.34938 18.6506C1.08566 18.3869 0.9375 18.0292 0.9375 17.6562V14.2188C0.9375 14.0944 0.888114 13.9752 0.800206 13.8873C0.712299 13.7994 0.59307 13.75 0.46875 13.75C0.34443 13.75 0.225201 13.7994 0.137294 13.8873C0.049386 13.9752 0 14.0944 0 14.2188L0 17.6562C0 18.2779 0.24693 18.874 0.686468 19.3135C1.12601 19.7531 1.72215 20 2.34375 20H17.6562C18.2779 20 18.874 19.7531 19.3135 19.3135C19.7531 18.874 20 18.2779 20 17.6562V14.2188C20 14.0944 19.9506 13.9752 19.8627 13.8873C19.7748 13.7994 19.6556 13.75 19.5312 13.75Z" fill="currentColor"/>
</svg>
